<?xml version="1.0" encoding="UTF-8" standalone="no"?>
<!DOCTYPE svg PUBLIC "-//W3C//DTD SVG 1.1//EN" "http://www.w3.org/Graphics/SVG/1.1/DTD/svg11.dtd">
<svg width="100%" height="100%" viewBox="0 0 16 16" version="1.1" xmlns="http://www.w3.org/2000/svg" xmlns:xlink="http://www.w3.org/1999/xlink" xml:space="preserve" xmlns:serif="http://www.serif.com/" style="fill-rule:evenodd;clip-rule:evenodd;stroke-linejoin:round;stroke-miterlimit:2;">
    <g transform="matrix(0.016,0,0,0.016,0.032069,0)">
        <g transform="matrix(0.96405,0,0,1.45977,-2.004325,0)">
            <rect x="0" y="0" width="1039.37" height="685.039" style="fill:rgb(24,24,24);"/>
        </g>
        <g transform="matrix(1,0,0,1,-7287.5,94.958207)">
            <g transform="matrix(3.85937,0,0,3.85937,6773.693025,-726.639103)">
                <path d="M186.015,346L214.964,240.459L246.475,240.459L275.424,346L256.728,346L250.396,321.876L211.044,321.876L204.711,346L186.015,346ZM215.265,305.291L246.174,305.291L232.001,251.767L229.438,251.767L215.265,305.291Z" style="fill:rgb(237,236,234);fill-rule:nonzero;"/>
            </g>
            <g transform="matrix(7.260828,0,0,7.260828,6500.676454,-2990.424537)">
                <g transform="matrix(76.782549,0,0,76.782549,219.394928,495)">
                </g>
                <text x="183px" y="495px" style="font-family:'InstrumentSerif-Italic', 'Instrument Serif';font-style:italic;font-size:76.783px;fill:rgb(191,254,46);">a</text>
            </g>
        </g>
    </g>
</svg>
