<?xml version="1.0" encoding="UTF-8" standalone="no"?>
<!DOCTYPE svg PUBLIC "-//W3C//DTD SVG 1.1//EN" "http://www.w3.org/Graphics/SVG/1.1/DTD/svg11.dtd">
<svg width="100%" height="100%" viewBox="0 0 651 103" version="1.1" xmlns="http://www.w3.org/2000/svg" xmlns:xlink="http://www.w3.org/1999/xlink" xml:space="preserve" xmlns:serif="http://www.serif.com/" style="fill-rule:evenodd;clip-rule:evenodd;stroke-linejoin:round;stroke-miterlimit:2;">
    <g transform="matrix(1,0,0,1,-59.055118,-273.67306)">
        <g id="logo-white" transform="matrix(0.742056,0,0,0.742056,8.059336,99.031579)">
            <g transform="matrix(1,0,0,1,-117.293189,-3)">
                <path d="M186.015,346L214.964,240.459L246.475,240.459L275.424,346L256.728,346L250.396,321.876L211.044,321.876L204.711,346L186.015,346ZM215.265,305.291L246.174,305.291L232.001,251.767L229.438,251.767L215.265,305.291Z" style="fill:rgb(237,236,234);fill-rule:nonzero;"/>
            </g>
            <g transform="matrix(1,0,0,1,-117.293189,-3)">
                <path d="M313.871,348.111C307.84,348.111 302.211,346.628 296.984,343.663C291.758,340.698 287.586,336.351 284.47,330.621C281.354,324.892 279.796,318.006 279.796,309.965L279.796,307.553C279.796,299.512 281.354,292.626 284.47,286.897C287.586,281.168 291.732,276.82 296.909,273.855C302.086,270.89 307.74,269.407 313.871,269.407C318.495,269.407 322.415,269.96 325.631,271.066C328.848,272.171 331.436,273.579 333.396,275.287C335.356,276.996 336.889,278.856 337.995,280.866L340.558,280.866L340.558,240.459L357.746,240.459L357.746,346L340.859,346L340.859,336.2L338.296,336.2C336.487,339.215 333.723,341.954 330.004,344.417C326.285,346.88 320.907,348.111 313.871,348.111ZM318.997,333.034C325.229,333.034 330.406,330.998 334.527,326.927C338.648,322.856 340.709,317.052 340.709,309.513L340.709,308.005C340.709,300.366 338.673,294.536 334.602,290.516C330.531,286.495 325.33,284.485 318.997,284.485C312.765,284.485 307.564,286.495 303.392,290.516C299.221,294.536 297.135,300.366 297.135,308.005L297.135,309.513C297.135,317.052 299.221,322.856 303.392,326.927C307.564,330.998 312.765,333.034 318.997,333.034Z" style="fill:rgb(237,236,234);fill-rule:nonzero;"/>
            </g>
            <g transform="matrix(1,0,0,1,-117.293189,-3)">
                <path d="M390.162,346L365.737,271.518L384.131,271.518L402.525,333.335L405.089,333.335L423.634,271.518L442.028,271.518L417.603,346L390.162,346Z" style="fill:rgb(237,236,234);fill-rule:nonzero;"/>
            </g>
            <g transform="matrix(1,0,0,1,-129.186576,-3)">
                <path d="M529.024,346L529.024,271.518L546.061,271.518L546.061,281.921L548.625,281.921C549.931,279.107 552.293,276.443 555.711,273.931C559.128,271.418 564.305,270.161 571.24,270.161C576.97,270.161 582.046,271.468 586.469,274.081C590.891,276.695 594.334,280.313 596.797,284.937C599.259,289.561 600.49,295.039 600.49,301.371L600.49,346L583.152,346L583.152,302.728C583.152,296.697 581.669,292.199 578.704,289.234C575.739,286.269 571.542,284.786 566.114,284.786C559.983,284.786 555.158,286.822 551.64,290.892C548.122,294.963 546.363,300.768 546.363,308.307L546.363,346L529.024,346Z" style="fill:rgb(237,236,234);fill-rule:nonzero;"/>
            </g>
            <g transform="matrix(1,0,0,1,-129.186576,-3)">
                <path d="M612.1,309.061L612.1,306.799C612.1,298.959 613.658,292.249 616.774,286.671C619.89,281.092 624.061,276.82 629.288,273.855C634.515,270.89 640.244,269.407 646.476,269.407C653.512,269.407 658.865,270.664 662.534,273.177C666.202,275.69 668.891,278.403 670.6,281.318L673.163,281.318L673.163,271.518L690.05,271.518L690.05,360.173C690.05,365.098 688.642,368.993 685.828,371.858C683.014,374.722 679.194,376.155 674.369,376.155L624.313,376.155L624.313,361.077L668.489,361.077C671.404,361.077 672.861,359.57 672.861,356.554L672.861,334.994L670.298,334.994C669.193,336.702 667.685,338.436 665.775,340.195C663.865,341.954 661.352,343.437 658.237,344.643C655.121,345.849 651.2,346.452 646.476,346.452C640.244,346.452 634.515,344.97 629.288,342.005C624.061,339.039 619.89,334.767 616.774,329.189C613.658,323.61 612.1,316.901 612.1,309.061ZM651.301,331.224C657.533,331.224 662.709,329.239 666.831,325.269C670.952,321.298 673.012,315.745 673.012,308.608L673.012,307.101C673.012,299.863 670.977,294.285 666.906,290.365C662.835,286.445 657.633,284.485 651.301,284.485C645.069,284.485 639.867,286.445 635.696,290.365C631.525,294.285 629.439,299.863 629.439,307.101L629.439,308.608C629.439,315.745 631.525,321.298 635.696,325.269C639.867,329.239 645.069,331.224 651.301,331.224Z" style="fill:rgb(237,236,234);fill-rule:nonzero;"/>
            </g>
            <g transform="matrix(1,0,0,1,-129.186576,-3)">
                <path d="M734.528,347.206C728.798,347.206 723.722,345.925 719.3,343.361C714.877,340.798 711.459,337.18 709.047,332.506C706.635,327.832 705.428,322.379 705.428,316.147L705.428,271.518L722.617,271.518L722.617,314.79C722.617,320.821 724.099,325.294 727.064,328.209C730.03,331.124 734.226,332.581 739.654,332.581C745.785,332.581 750.635,330.571 754.204,326.55C757.772,322.53 759.556,316.75 759.556,309.211L759.556,271.518L776.744,271.518L776.744,346L759.858,346L759.858,335.597L757.294,335.597C755.988,338.311 753.6,340.924 750.133,343.437C746.665,345.95 741.463,347.206 734.528,347.206Z" style="fill:rgb(237,236,234);fill-rule:nonzero;"/>
            </g>
            <g transform="matrix(1,0,0,1,-129.186576,-3)">
                <path d="M815.794,348.111C810.568,348.111 805.843,347.181 801.622,345.322C797.4,343.462 794.058,340.773 791.595,337.255C789.133,333.737 787.901,329.415 787.901,324.289C787.901,319.263 789.133,315.041 791.595,311.624C794.058,308.206 797.45,305.618 801.772,303.859C806.095,302.1 811.02,301.22 816.548,301.22L838.109,301.22L838.109,296.697C838.109,292.777 836.903,289.586 834.49,287.123C832.078,284.661 828.308,283.429 823.182,283.429C818.156,283.429 814.362,284.61 811.799,286.972C809.236,289.334 807.552,292.375 806.748,296.094L790.766,290.817C791.972,286.897 793.907,283.329 796.571,280.112C799.234,276.896 802.778,274.307 807.2,272.347C811.623,270.387 817.051,269.407 823.484,269.407C833.234,269.407 840.898,271.845 846.477,276.72C852.055,281.595 854.845,288.656 854.845,297.903L854.845,327.153C854.845,330.169 856.252,331.677 859.066,331.677L865.399,331.677L865.399,346L853.186,346C849.567,346 846.602,345.095 844.29,343.286C841.979,341.477 840.823,339.014 840.823,335.898L840.823,335.597L838.259,335.597C837.656,337.004 836.601,338.713 835.093,340.723C833.586,342.733 831.299,344.467 828.233,345.925C825.167,347.382 821.021,348.111 815.794,348.111ZM818.659,333.938C824.388,333.938 829.062,332.305 832.681,329.038C836.299,325.771 838.109,321.374 838.109,315.845L838.109,314.338L817.604,314.338C813.885,314.338 810.869,315.142 808.557,316.75C806.245,318.358 805.089,320.72 805.089,323.836C805.089,326.852 806.296,329.289 808.708,331.149C811.12,333.008 814.437,333.938 818.659,333.938Z" style="fill:rgb(237,236,234);fill-rule:nonzero;"/>
            </g>
            <g transform="matrix(1,0,0,1,-129.186576,-3)">
                <path d="M873.691,346L873.691,271.518L890.728,271.518L890.728,280.112L893.292,280.112C894.397,276.996 896.257,274.735 898.87,273.327C901.484,271.92 904.6,271.217 908.218,271.217L917.265,271.217L917.265,286.595L907.917,286.595C902.891,286.595 898.82,287.927 895.704,290.591C892.588,293.255 891.03,297.351 891.03,302.879L891.03,346L873.691,346Z" style="fill:rgb(237,236,234);fill-rule:nonzero;"/>
            </g>
            <g transform="matrix(1,0,0,1,-129.186576,-3)">
                <path d="M954.355,348.111C948.324,348.111 942.695,346.628 937.468,343.663C932.241,340.698 928.07,336.351 924.954,330.621C921.838,324.892 920.28,318.006 920.28,309.965L920.28,307.553C920.28,299.512 921.838,292.626 924.954,286.897C928.07,281.168 932.216,276.82 937.393,273.855C942.569,270.89 948.223,269.407 954.355,269.407C958.978,269.407 962.899,269.96 966.115,271.066C969.331,272.171 971.92,273.579 973.88,275.287C975.84,276.996 977.373,278.856 978.478,280.866L981.042,280.866L981.042,240.459L998.23,240.459L998.23,346L981.343,346L981.343,336.2L978.78,336.2C976.971,339.215 974.206,341.954 970.487,344.417C966.768,346.88 961.391,348.111 954.355,348.111ZM959.481,333.034C965.713,333.034 970.889,330.998 975.011,326.927C979.132,322.856 981.192,317.052 981.192,309.513L981.192,308.005C981.192,300.366 979.157,294.536 975.086,290.516C971.015,286.495 965.813,284.485 959.481,284.485C953.249,284.485 948.047,286.495 943.876,290.516C939.705,294.536 937.619,300.366 937.619,308.005L937.619,309.513C937.619,317.052 939.705,322.856 943.876,326.927C948.047,330.998 953.249,333.034 959.481,333.034Z" style="fill:rgb(237,236,234);fill-rule:nonzero;"/>
            </g>
            <g transform="matrix(1,0,0,1,-129.186576,-3)">
                <path d="M1042.406,301.07C1036.375,301.07 1030.973,299.738 1026.198,297.074C1021.424,294.411 1017.654,290.717 1014.89,285.992C1012.126,281.268 1010.744,275.84 1010.744,269.709C1010.744,263.577 1012.126,258.15 1014.89,253.425C1017.654,248.701 1021.424,245.007 1026.198,242.344C1030.973,239.68 1036.375,238.348 1042.406,238.348C1048.437,238.348 1053.84,239.68 1058.614,242.344C1063.389,245.007 1067.158,248.701 1069.922,253.425C1072.686,258.15 1074.068,263.577 1074.068,269.709C1074.068,275.84 1072.686,281.268 1069.922,285.992C1067.158,290.717 1063.389,294.411 1058.614,297.074C1053.84,299.738 1048.437,301.07 1042.406,301.07ZM1042.406,294.888C1049.945,294.888 1056.026,292.601 1060.65,288.028C1065.273,283.454 1067.585,277.348 1067.585,269.709C1067.585,262.17 1065.273,256.089 1060.65,251.465C1056.026,246.842 1049.945,244.53 1042.406,244.53C1034.867,244.53 1028.786,246.816 1024.163,251.39C1019.539,255.963 1017.227,262.07 1017.227,269.709C1017.227,277.248 1019.539,283.329 1024.163,287.952C1028.786,292.576 1034.867,294.888 1042.406,294.888ZM1031.55,286.143L1031.55,252.672L1044.366,252.672C1048.085,252.672 1050.9,253.576 1052.809,255.385C1054.719,257.195 1055.674,259.306 1055.674,261.718C1055.674,263.728 1055.197,265.437 1054.242,266.844C1053.287,268.251 1051.754,269.357 1049.643,270.161L1049.643,271.669C1051.352,271.769 1052.583,272.322 1053.337,273.327C1054.091,274.333 1054.468,275.639 1054.468,277.248L1054.468,286.143L1048.286,286.143L1048.286,277.097C1048.286,274.986 1047.231,273.931 1045.12,273.931L1037.732,273.931L1037.732,286.143L1031.55,286.143ZM1037.732,268.201L1044.366,268.201C1046.075,268.201 1047.357,267.699 1048.211,266.693C1049.065,265.688 1049.492,264.532 1049.492,263.226C1049.492,261.818 1049.065,260.637 1048.211,259.682C1047.357,258.728 1046.075,258.25 1044.366,258.25L1037.732,258.25L1037.732,268.201Z" style="fill:rgb(237,236,234);fill-rule:nonzero;"/>
            </g>
            <g transform="matrix(1.881351,0,0,1.881351,-21.430247,-589.568666)">
                <g transform="matrix(76.782549,0,0,76.782549,219.394928,495)">
                </g>
                <text x="183px" y="495px" style="font-family:'InstrumentSerif-Italic', 'Instrument Serif';font-style:italic;font-size:76.783px;fill:rgb(191,254,46);">a</text>
            </g>
        </g>
    </g>
</svg>
